<?xml version="1.0" encoding="utf-8"?>
<!-- Generator: Adobe Illustrator 16.0.0, SVG Export Plug-In . SVG Version: 6.00 Build 0)  -->
<!DOCTYPE svg PUBLIC "-//W3C//DTD SVG 1.1//EN" "http://www.w3.org/Graphics/SVG/1.1/DTD/svg11.dtd">
<svg version="1.1" id="Layer_1" xmlns="http://www.w3.org/2000/svg" xmlns:xlink="http://www.w3.org/1999/xlink" x="0px" y="0px"
	 width="800px" height="800px" viewBox="0 0 800 800" enable-background="new 0 0 800 800" xml:space="preserve">
<g>
	<path fill="#F05032" d="M181.261,339.345l-64.225-64.223c-3.698-3.7-9.696-3.7-13.398,0l-13.335,13.337l16.917,16.917
		c3.932-1.327,8.44-0.437,11.573,2.698c3.152,3.151,4.035,7.699,2.673,11.646l16.306,16.304c3.946-1.359,8.496-0.481,11.647,2.675
		c4.402,4.401,4.402,11.536,0,15.942c-4.405,4.403-11.539,4.403-15.946,0c-3.311-3.314-4.13-8.182-2.451-12.261l-15.208-15.208
		v40.018c1.072,0.531,2.085,1.239,2.979,2.131c4.402,4.402,4.402,11.535,0,15.944c-4.402,4.4-11.541,4.4-15.94,0
		c-4.402-4.409-4.402-11.542,0-15.944c1.088-1.087,2.348-1.909,3.693-2.46v-40.386c-1.345-0.55-2.602-1.366-3.693-2.46
		c-3.334-3.334-4.136-8.229-2.426-12.323l-16.678-16.681l-44.04,44.036c-3.699,3.702-3.699,9.701,0,13.401l64.229,64.223
		c3.698,3.698,9.694,3.698,13.398,0l63.925-63.926C184.961,349.045,184.961,343.043,181.261,339.345z"/>
					  <animateTransform attributeType="xml"
                    attributeName="transform"
                    type="rotate"
                    from="0 400 400"
                    to="360 400 400"
                    dur="10s"
                    repeatCount="indefinite"/>
</g>
<g>
	<polygon fill="#00ADEF" points="615.963,301.763 666.124,294.932 666.146,343.316 616.009,343.602 	"/>
	<polygon fill="#00ADEF" points="666.103,348.894 666.142,397.324 616.001,390.43 616.001,348.569 	"/>
	<polygon fill="#00ADEF" points="672.185,294.037 738.696,284.33 738.696,342.701 672.185,343.232 	"/>
	<polygon fill="#00ADEF" points="738.714,349.352 738.696,407.461 672.185,398.071 672.089,349.242 	"/>
				  <animateTransform attributeType="xml"
                    attributeName="transform"
                    type="rotate"
                    from="0 400 400"
                    to="360 400 400"
                    dur="12s"
                    repeatCount="indefinite"/>
</g>
<g>
	<path fill="#4D4D4D" d="M178.536,625.135v-32.275c0-11.094,9.076-20.174,20.17-20.174s20.173,9.08,20.173,20.174v1.008h-10.462
		v-1.008c0-5.414-4.291-9.709-9.711-9.709c-5.423,0-9.708,4.295-9.708,9.709v32.275c0,5.426,4.285,9.711,9.708,9.711
		c5.42,0,9.711-4.285,9.711-9.711v-10.84h-9.711V603.83h20.173v21.305c0,11.102-9.079,20.18-20.173,20.18
		S178.536,636.236,178.536,625.135z"/>
	<path fill="#4D4D4D" d="M247.873,573.697h10.465v70.604h-10.465V573.697z"/>
	<path fill="#4D4D4D" d="M294.013,584.158h-14.872v-10.461h40.342v10.461h-14.999v60.143h-10.471V584.158z"/>
	<path fill="#4D4D4D" d="M340.285,592.859c0-11.094,9.079-20.174,20.174-20.174c11.1,0,20.173,9.08,20.173,20.174v51.441h-10.459
		v-51.441c0-5.414-4.291-9.709-9.714-9.709c-5.421,0-9.706,4.295-9.706,9.709v51.441h-10.468V592.859z"/>
	<path fill="#4D4D4D" d="M409.628,573.697h10.464v70.604h-10.464V573.697z"/>
	<path fill="#4D4D4D" d="M449.084,592.859c0-11.094,9.076-20.174,20.172-20.174c11.098,0,20.178,9.08,20.178,20.174v51.441h-10.471
		v-51.441c0-5.414-4.281-9.709-9.707-9.709c-5.424,0-9.703,4.295-9.703,9.709v51.441h-10.469V592.859z"/>
	<path fill="#4D4D4D" d="M515.904,634.846h5.045c5.42,0,9.705-4.285,9.705-9.711v-40.977h-14.75v-10.461h25.213v51.438
		c0,11.102-9.078,20.18-20.168,20.18h-5.045V634.846z"/>
	<path fill="#4D4D4D" d="M570.109,592.859c0-11.094,9.08-20.174,20.186-20.174c11.088,0,20.168,9.08,20.168,20.174v51.441h-10.465
		v-30.006h-19.412v30.006h-10.477V592.859z M599.998,603.83v-10.971c0-5.414-4.285-9.709-9.703-9.709
		c-5.426,0-9.709,4.295-9.709,9.709v10.971H599.998z"/>
</g>
<g>
	<path fill="#4D4D4D" d="M478.242,176.794l-14.176-6.667l-2.469,5.339l14.176,6.668L478.242,176.794z M482.924,165.106
		c1.828-3.925,0.109-8.58-3.814-10.392c-3.924-1.815-8.584-0.103-10.4,3.829l-2.059,4.467l14.162,6.669L482.924,165.106z
		 M470.723,193.049l-14.176-6.665l-2.467,5.333l14.186,6.667L470.723,193.049z M463.217,209.298l-14.178-6.664l-2.467,5.339
		l14.186,6.667L463.217,209.298z M500.021,312.284c0-30.269-20.646-56.746-51.479-71.219l7.167-15.516l-14.166-6.662l-7.614,16.476
		c-12.182-3.858-25.488-5.986-39.43-5.986c-58.279,0-105.522,37.122-105.522,82.908c0,26.739,16.107,50.492,41.098,65.647
		c-9.194,6.33-14.733,14.441-14.733,23.3c0,11.376,9.111,21.528,23.373,28.214c-13.809,14.096-22.362,33.369-22.362,54.662
		c0,3.705-1.024,7.791,0.769,10.908c6.081,10.564,21.141,10.895,29.408,3.682c13.642-11.889,24.944-32.969,44.229-36.299
		c24.94-4.309,39.208,25.574,55.399,38.473c7.955,6.338,20.668,1.84,25.707-6.166c1.855-2.963,0.742-6.994,0.742-10.598
		c0-21.285-8.531-40.566-22.336-54.658c14.273-6.686,23.383-16.842,23.383-28.218c0-8.858-5.535-16.97-14.729-23.3
		C483.914,362.776,500.021,339.023,500.021,312.284z M470.934,341.453c-12.713,7.361-27.385,6.909-40.781,3.026
		c-4.158-1.204-8.285-2.587-12.432-3.856c-7.724-2.368-15.416-5.045-23.06-7.77c-0.034-0.012-0.092-0.037-0.16-0.068
		c-0.069,0.031-0.127,0.056-0.161,0.068c-7.649,2.725-15.336,5.402-23.058,7.77c-4.15,1.269-8.276,2.652-12.438,3.856
		c-13.394,3.883-28.068,4.334-40.777-3.026c-3.107-1.803-6.359-4.883-8.773-7.908c-7.936-9.961-9.067-27.715-1.163-38.184
		c4.976-6.593,13.13-9.732,20.28-9.725c10.433,0.004,20.832,4.044,30.176,9.636c13.281,7.941,24.649,19.622,35.913,31.31
		c11.265-11.688,22.635-23.368,35.906-31.31c9.348-5.592,19.75-9.632,30.184-9.636c7.152-0.007,15.303,3.132,20.281,9.725
		c7.898,10.469,6.773,28.223-1.166,38.184C477.293,336.57,474.045,339.649,470.934,341.453z"/>
	<path fill="#4D4D4D" d="M378.524,325.348l-29.854-15.321l-29.593-0.751l16.021,4.332c-0.238,1.026-0.376,2.09-0.376,3.188
		c0,7.768,6.295,14.065,14.062,14.065c6.32,0,11.666-4.176,13.434-9.921L378.524,325.348z"/>
	<path fill="#4D4D4D" d="M469.92,309.276l-29.584,0.751l-29.865,15.321l16.31-4.409c1.768,5.746,7.108,9.922,13.437,9.922
		c7.768,0,14.061-6.297,14.061-14.065c0-1.098-0.138-2.163-0.376-3.189L469.92,309.276z"/>
</g>
</svg>
