<?xml version="1.0" encoding="utf-8"?>
<!-- Generator: Adobe Illustrator 16.0.0, SVG Export Plug-In . SVG Version: 6.00 Build 0)  -->
<!DOCTYPE svg PUBLIC "-//W3C//DTD SVG 1.1//EN" "http://www.w3.org/Graphics/SVG/1.1/DTD/svg11.dtd">
<svg version="1.1" id="Layer_1" xmlns="http://www.w3.org/2000/svg" xmlns:xlink="http://www.w3.org/1999/xlink" x="0px" y="0px"
	 width="515px" height="688px" viewBox="0 0 515 688" enable-background="new 0 0 515 688" xml:space="preserve">
<g>
	<path fill="#4D4D4D" d="M36.036,481.08v-32.275c0-11.094,9.076-20.174,20.17-20.174s20.173,9.08,20.173,20.174v1.008H65.918v-1.008
		c0-5.414-4.291-9.709-9.711-9.709c-5.423,0-9.708,4.295-9.708,9.709v32.275c0,5.426,4.285,9.711,9.708,9.711
		c5.42,0,9.711-4.285,9.711-9.711v-10.84h-9.711v-10.465H76.38v21.305c0,11.102-9.079,20.18-20.173,20.18
		S36.036,492.182,36.036,481.08z"/>
	<path fill="#4D4D4D" d="M105.373,429.643h10.465v70.604h-10.465V429.643z"/>
	<path fill="#4D4D4D" d="M151.513,440.104h-14.872v-10.461h40.342v10.461h-14.999v60.143h-10.471V440.104z"/>
	<path fill="#4D4D4D" d="M197.785,448.805c0-11.094,9.079-20.174,20.174-20.174c11.1,0,20.173,9.08,20.173,20.174v51.441h-10.459
		v-51.441c0-5.414-4.291-9.709-9.714-9.709c-5.421,0-9.706,4.295-9.706,9.709v51.441h-10.468V448.805z"/>
	<path fill="#4D4D4D" d="M267.128,429.643h10.464v70.604h-10.464V429.643z"/>
	<path fill="#4D4D4D" d="M306.584,448.805c0-11.094,9.076-20.174,20.172-20.174c11.098,0,20.178,9.08,20.178,20.174v51.441h-10.471
		v-51.441c0-5.414-4.281-9.709-9.707-9.709c-5.424,0-9.703,4.295-9.703,9.709v51.441h-10.469V448.805z"/>
	<path fill="#4D4D4D" d="M373.404,490.791h5.045c5.42,0,9.705-4.285,9.705-9.711v-40.977h-14.75v-10.461h25.213v51.438
		c0,11.102-9.078,20.18-20.168,20.18h-5.045V490.791z"/>
	<path fill="#4D4D4D" d="M427.609,448.805c0-11.094,9.08-20.174,20.186-20.174c11.088,0,20.168,9.08,20.168,20.174v51.441h-10.465
		V470.24h-19.412v30.006h-10.477V448.805z M457.498,459.775v-10.971c0-5.414-4.285-9.709-9.703-9.709
		c-5.426,0-9.709,4.295-9.709,9.709v10.971H457.498z"/>
</g>
<g>
	<path fill="#4D4D4D" d="M335.742,29.794l-14.176-6.667l-2.469,5.339l14.176,6.668L335.742,29.794z M340.424,18.106
		c1.828-3.925,0.109-8.58-3.814-10.392c-3.924-1.815-8.584-0.103-10.4,3.829l-2.059,4.467l14.162,6.669L340.424,18.106z
		 M328.223,46.049l-14.176-6.665l-2.467,5.333l14.186,6.667L328.223,46.049z M320.717,62.298l-14.178-6.664l-2.467,5.339
		l14.186,6.667L320.717,62.298z M357.521,165.284c0-30.269-20.646-56.746-51.479-71.219l7.167-15.516l-14.166-6.662l-7.614,16.476
		c-12.182-3.858-25.488-5.986-39.43-5.986c-58.279,0-105.522,37.122-105.522,82.908c0,26.739,16.107,50.492,41.098,65.647
		c-9.194,6.33-14.733,14.441-14.733,23.3c0,11.375,9.111,21.528,23.373,28.214c-13.809,14.096-22.362,33.369-22.362,54.662
		c0,3.705-1.024,7.791,0.769,10.908c6.081,10.564,21.141,10.895,29.408,3.682c13.642-11.889,24.944-32.969,44.229-36.299
		c24.94-4.309,39.208,25.574,55.399,38.473c7.955,6.338,20.668,1.84,25.707-6.166c1.855-2.963,0.742-6.994,0.742-10.598
		c0-21.285-8.531-40.566-22.336-54.659c14.273-6.686,23.383-16.842,23.383-28.217c0-8.858-5.535-16.97-14.729-23.3
		C341.414,215.776,357.521,192.023,357.521,165.284z M328.434,194.453c-12.713,7.361-27.385,6.909-40.781,3.026
		c-4.158-1.204-8.285-2.587-12.432-3.856c-7.724-2.368-15.416-5.045-23.06-7.77c-0.034-0.012-0.092-0.037-0.16-0.068
		c-0.069,0.031-0.127,0.056-0.161,0.068c-7.649,2.725-15.336,5.402-23.058,7.77c-4.15,1.269-8.276,2.652-12.438,3.856
		c-13.394,3.883-28.068,4.334-40.777-3.026c-3.107-1.803-6.359-4.883-8.773-7.908c-7.936-9.961-9.067-27.715-1.163-38.184
		c4.976-6.593,13.13-9.732,20.28-9.725c10.433,0.004,20.832,4.044,30.176,9.636c13.281,7.941,24.649,19.622,35.913,31.31
		c11.265-11.688,22.635-23.368,35.906-31.31c9.348-5.592,19.75-9.632,30.184-9.636c7.152-0.007,15.303,3.132,20.281,9.725
		c7.898,10.469,6.773,28.223-1.166,38.184C334.793,189.57,331.545,192.649,328.434,194.453z"/>
	<path fill="#4D4D4D" d="M236.024,178.348l-29.854-15.321l-29.593-0.751l16.021,4.332c-0.238,1.026-0.376,2.09-0.376,3.188
		c0,7.768,6.295,14.065,14.062,14.065c6.32,0,11.666-4.176,13.434-9.921L236.024,178.348z"/>
	<path fill="#4D4D4D" d="M327.42,162.276l-29.584,0.751l-29.865,15.321l16.31-4.409c1.768,5.746,7.108,9.922,13.437,9.922
		c7.768,0,14.061-6.297,14.061-14.065c0-1.098-0.138-2.163-0.376-3.189L327.42,162.276z"/>
</g>
<g>
	<path fill="#F42534" d="M217.252,595.154l-64.225-64.223c-3.698-3.7-9.696-3.7-13.398,0l-13.335,13.337l16.917,16.917
		c3.932-1.327,8.44-0.437,11.573,2.698c3.152,3.151,4.035,7.699,2.673,11.646l16.306,16.304c3.946-1.359,8.496-0.481,11.647,2.675
		c4.402,4.401,4.402,11.536,0,15.942c-4.405,4.403-11.539,4.403-15.946,0c-3.311-3.314-4.13-8.182-2.451-12.261l-15.208-15.208
		v40.018c1.072,0.531,2.085,1.239,2.979,2.131c4.402,4.402,4.402,11.535,0,15.944c-4.402,4.4-11.541,4.4-15.94,0
		c-4.402-4.409-4.402-11.542,0-15.944c1.088-1.087,2.348-1.909,3.693-2.46v-40.386c-1.345-0.55-2.602-1.366-3.693-2.46
		c-3.334-3.334-4.136-8.229-2.426-12.323L119.74,550.82L75.7,594.856c-3.699,3.702-3.699,9.701,0,13.401l64.229,64.223
		c3.698,3.698,9.694,3.698,13.398,0l63.925-63.926C220.953,604.854,220.953,598.853,217.252,595.154z"/>
</g>
<g>
	<polygon fill="#00ADEF" points="296.146,557.572 346.307,550.741 346.329,599.126 296.191,599.411 	"/>
	<polygon fill="#00ADEF" points="346.285,604.703 346.324,653.134 296.184,646.239 296.184,604.379 	"/>
	<polygon fill="#00ADEF" points="352.367,549.847 418.879,540.14 418.879,598.511 352.367,599.042 	"/>
	<polygon fill="#00ADEF" points="418.896,605.161 418.879,663.271 352.367,653.881 352.271,605.052 	"/>
</g>
<g>
	<path fill="#999999" d="M260.599,586.18v13.497h12.98v3.445h-12.98v13.612h-3.676v-13.612h-12.979v-3.445h12.979V586.18H260.599z"
		/>
</g>
</svg>
