<?xml version="1.0" encoding="UTF-8" standalone="no"?>
<svg id="logo" xmlns="http://www.w3.org/2000/svg" version="1.1" viewBox="0 0 5400 6180" width="540" height="618">
 <g transform="matrix(1,0,0,-1,0,6180)">
  <path id="letter1" style="fill:#393536;fill-opacity:1;fill-rule:nonzero;stroke:none" d="m 0,201.801 0,322.758 c 0,110.941 90.7578,201.73 201.703,201.73 110.949,0 201.735,-90.789 201.735,-201.73 l 0,-10.079 -104.622,0 0,10.079 c 0,54.14 -42.91,97.082 -97.113,97.082 -54.23,0 -97.086,-42.942 -97.086,-97.082 l 0,-322.758 c 0,-54.262 42.856,-97.11 97.086,-97.11 54.203,0 97.113,42.848 97.113,97.11 l 0,108.398 -97.113,0 0,104.653 201.735,0 0,-213.051 C 403.438,90.7891 312.652,0 201.703,0 90.7578,0 0,90.7891 0,201.801" />
  <path id="letter2" style="fill:#393536;fill-opacity:1;fill-rule:nonzero;stroke:none" d="m 693.363,10.1406 104.656,0 0,706.039 -104.656,0 0,-706.039 z" />
  <path id="letter3" style="fill:#393536;fill-opacity:1;fill-rule:nonzero;stroke:none" d="m 1154.77,611.559 -148.73,0 0,104.621 403.42,0 0,-104.621 -149.99,0 0,-601.4184 -104.7,0 0,601.4184" />
  <path id="letter4" style="fill:#393536;fill-opacity:1;fill-rule:nonzero;stroke:none" d="m 1617.49,524.559 c 0,110.941 90.79,201.73 201.74,201.73 110.99,0 201.73,-90.789 201.73,-201.73 l 0,-514.4184 -104.59,0 0,514.4184 c 0,54.14 -42.91,97.082 -97.14,97.082 -54.21,0 -97.06,-42.942 -97.06,-97.082 l 0,-514.4184 -104.68,0 0,514.4184" />
  <path id="letter5" style="fill:#393536;fill-opacity:1;fill-rule:nonzero;stroke:none" d="m 2310.92,10.1406 104.637,0 0,706.039 -104.637,0 0,-706.039 z" />
  <path id="letter6" style="fill:#393536;fill-opacity:1;fill-rule:nonzero;stroke:none" d="m 2705.48,524.559 c 0,110.941 90.76,201.73 201.72,201.73 110.97,0 201.77,-90.789 201.77,-201.73 l 0,-514.4184 -104.7,0 0,514.4184 c 0,54.14 -42.81,97.082 -97.07,97.082 -54.24,0 -97.03,-42.942 -97.03,-97.082 l 0,-514.4184 -104.69,0 0,514.4184" />
  <path id="letter7" style="fill:#393536;fill-opacity:1;fill-rule:nonzero;stroke:none" d="m 3373.68,104.691 50.45,0 c 54.2,0 97.05,42.848 97.05,97.11 l 0,409.758 -147.5,0 0,104.621 252.13,0 0,-514.379 C 3625.81,90.7891 3535.03,0 3424.13,0 l -50.45,0 0,104.691" />
  <path id="letter8" style="fill:#393536;fill-opacity:1;fill-rule:nonzero;stroke:none" d="m 4214.62,414.852 0,109.707 c 0,54.14 -42.85,97.082 -97.03,97.082 -54.26,0 -97.09,-42.942 -97.09,-97.082 l 0,-109.707 194.12,0 z m -298.89,109.707 c 0,110.941 90.8,201.73 201.86,201.73 110.88,0 201.68,-90.789 201.68,-201.73 l 0,-514.4184 -104.65,0 0,300.0584 -194.12,0 0,-300.0584 -104.77,0 0,514.4184" />
  <path id="sword1" style="fill:#100f0d;fill-opacity:1;fill-rule:nonzero;stroke:none" d="m 2755.44,4565.43 141.85,-66.67 24.58,53.35 -141.76,66.65 -24.67,-53.33" />
  <path id="sword2" style="fill:#100f0d;fill-opacity:1;fill-rule:nonzero;stroke:none" d="m 2830.62,4727.93 141.75,-66.68 24.69,53.41 -141.76,66.66 -24.68,-53.39" />
  <path id="sword3" style="fill:#100f0d;fill-opacity:1;fill-rule:nonzero;stroke:none" d="m 3005.73,4935.45 c -39.24,18.15 -85.84,1.03 -104,-38.29 l -20.59,-44.67 141.62,-66.69 21.12,45.74 c 18.28,39.25 1.09,85.79 -38.15,103.91" />
  <path id="sword4" style="fill:#100f0d;fill-opacity:1;fill-rule:nonzero;stroke:none" d="m 2680.36,4402.86 141.86,-66.66 24.59,53.42 -141.78,66.63 -24.67,-53.39" />
  <path id="sword5" style="fill:#100f0d;fill-opacity:1;fill-rule:nonzero;stroke:none" d="m 2464.05,3934.52 c -18.14,-39.29 -1.01,-85.82 38.28,-103.98 39.28,-18.14 85.82,-1.05 103.91,38.29 l 165.49,358.28 -141.66,66.62 -166.02,-359.21" />
  <path id="figure" style="fill:#100f0d;fill-opacity:1;fill-rule:nonzero;stroke:none" d="m 3214.85,3359.76 c 0,457.86 -472.34,829.08 -1055.22,829.08 -582.79,0 -1055.23,-371.22 -1055.23,-829.08 0,-267.39 161.08,-504.92 410.98,-656.47 -91.94,-63.3 -147.33,-144.42 -147.33,-233 0,-113.76 91.11,-215.28 233.73,-282.15 -138.09,-140.95 -223.63,-333.68 -223.63,-546.62 0,-37.05 -10.24,-77.91 7.69,-109.07 60.81,-105.65 211.41,-108.95 294.08,-36.82 136.42,118.89 249.45,329.69 442.29,362.99 249.4,43.09 392.08,-255.74 553.99,-384.73 79.55,-63.38 206.68,-18.39 257.07,61.66 18.56,29.63 7.42,69.94 7.42,105.97 0,212.85 -85.31,405.67 -223.36,546.6 142.74,66.85 233.83,168.41 233.83,282.17 0,88.58 -55.35,169.7 -147.28,233 249.9,151.55 410.97,389.08 410.97,656.47" />
  <path id="rightEyeSlit" style="fill:#ffffff;fill-opacity:1;fill-rule:nonzero;stroke:none" d="m 2204.24,3170.57 c -127.55,131.6 -253.39,269.41 -403.73,359.31 -93.44,55.92 -197.43,96.32 -301.76,96.36 -71.5,0.07 -153.05,-31.32 -202.8,-97.25 -79.05,-104.69 -67.73,-282.23 11.63,-381.84 24.14,-30.25 56.66,-61.04 87.73,-79.07 127.09,-73.61 273.84,-69.1 407.78,-30.27 41.61,12.04 82.87,25.88 124.37,38.57 77.22,23.67 154.08,50.45 230.58,77.69 4.54,1.63 41.96,20.88 46.2,16.5" />
  <path id="leftEyeSlit" style="fill:#ffffff;fill-opacity:1;fill-rule:nonzero;stroke:none" d="m 2115.04,3170.57 c 127.55,131.6 253.43,269.41 403.66,359.31 93.48,55.92 197.5,96.32 301.84,96.36 71.52,0.07 153.02,-31.32 202.81,-97.25 78.98,-104.69 67.73,-282.23 -11.66,-381.84 -24.12,-30.25 -56.6,-61.04 -87.72,-79.07 -127.12,-73.61 -273.84,-69.1 -407.81,-30.27 -41.58,12.04 -82.85,25.88 -124.31,38.57 -77.24,23.67 -154.16,50.45 -230.6,77.69 -4.51,1.63 -41.93,20.88 -46.21,16.5" />
  <path id="rightEyebrow" style="fill:#100f0d;fill-opacity:1;fill-rule:nonzero;stroke:none" d="m 1405.42,3389.84 594.46,-160.72 -298.53,153.21 -295.93,7.51" />
  <path id="rightEyeball" style="fill:#100f0d;fill-opacity:1;fill-rule:nonzero;stroke:none" d="m 1572.84,3369.16 c -7.1,-16.78 -10.96,-35.2 -10.96,-54.52 0,-77.68 62.94,-140.65 140.62,-140.65 72.02,0 131.43,54.22 139.6,124.11 l -269.26,71.06" />
  <path id="leftEyebrow" style="fill:#100f0d;fill-opacity:1;fill-rule:nonzero;stroke:none" d="m 2913.84,3389.84 -594.49,-160.72 298.65,153.21 295.84,7.51" />
  <path id="leftEyeball" style="fill:#100f0d;fill-opacity:1;fill-rule:nonzero;stroke:none" d="m 2477.18,3298.1 c 8.2,-69.89 67.52,-124.11 139.63,-124.11 77.67,0 140.6,62.97 140.6,140.65 0,19.32 -3.87,37.74 -10.95,54.52 l -269.28,-71.06" />
 </g>
</svg>